<svg xmlns="http://www.w3.org/2000/svg" viewBox="0 0 200 200"><title>icon-takeout</title><path d="M164.483,50.874a4.4,4.4,0,0,0-3.365.653,3.1,3.1,0,0,0-1.427,2,9.845,9.845,0,0,1-2.368,4.258,21.093,21.093,0,0,0-2.121,3.08c-.46.862-.892,1.752-1.325,2.646-1.358,2.8-2.653,5.442-4.8,7.191-.1-.1-.187-.217-.283-.32a4.53,4.53,0,0,1-1.048-1.431A20.709,20.709,0,0,0,138.5,57.977a56.719,56.719,0,0,1,3.607-8.858c1.969-3.646,3.716-7.433,5.406-11.1,1.737-3.764,3.534-7.657,5.545-11.33a5.162,5.162,0,0,0,.52-4.346,5.9,5.9,0,0,0-3.616-3.328c-1.593-.632-5.827-2.313-7.931,2.627-4.133,9.7-8.762,20.249-14.567,33.2a9.176,9.176,0,0,0-.73,3.636,2,2,0,0,0,1.917,2.079l.082,0a2,2,0,0,0,2-1.919,5.449,5.449,0,0,1,.385-2.161c5.816-12.977,10.454-23.549,14.6-33.271.465-1.092.577-1.35,2.774-.477.845.335,1.241.719,1.33.967a1.524,1.524,0,0,1-.267,1.068c-2.077,3.793-3.9,7.749-5.668,11.575-1.664,3.606-3.386,7.335-5.294,10.871a68.125,68.125,0,0,0-4.332,10.822c-.527,1.572-1.071,3.2-1.652,4.752a2,2,0,1,0,3.748,1.4c.292-.782.571-1.572.843-2.362a16.778,16.778,0,0,1,6.828,8.579,8.213,8.213,0,0,0,1.852,2.707c.192.205.385.411.566.634a11.655,11.655,0,0,0-.7,1.925c-1.179,4.086-2.07,6.278-3.676,7.453-.521-2.747-2.315-4.677-3.821-6.27a19.9,19.9,0,0,1-1.832-2.119c-2.749-3.912-5.751-7.708-8.654-11.379-2.394-3.028-4.871-6.159-7.17-9.313a8.217,8.217,0,0,0-7.472-3.681c-6.933.087-13.989.073-20.81.058q-3.9-.007-7.792-.01c-1.7,0-3.844-.045-5.811,2.29-1.3,1.547-2.554,3.137-3.786,4.74-4.53-3.524-9.137-1.486-12.537.03-.548.244-1.084.484-1.608.7-4.481,1.807-7.93,5.944-9.461,11.352a9.18,9.18,0,0,1-1.2,2.449,30.147,30.147,0,0,1-4.956-7.608c-.853-1.648-1.735-3.353-2.78-4.959-.5-.773-1.077-1.51-1.633-2.222-1.539-1.972-2.867-3.675-2.759-5.9a2,2,0,0,0-1.9-2.095,2.026,2.026,0,0,0-2.095,1.9c-.18,3.71,1.917,6.4,3.6,8.557.526.675,1.023,1.313,1.433,1.942.937,1.44,1.735,2.983,2.581,4.617,1.936,3.742,3.938,7.61,7.771,10.425a8.67,8.67,0,0,1,.275,1.368,11.979,11.979,0,0,0,.47,2.164,11.72,11.72,0,0,0,5,6.312c-.989,3.552-.552,6.983-.112,10.309.173,1.307.337,2.541.413,3.772a61.312,61.312,0,0,0,.95,6.883,51.986,51.986,0,0,1,.927,7.032c.218,5.661.98,11.3,1.718,16.752.517,3.817,1.051,7.764,1.386,11.647.97,11.242,2.053,20.536,3.408,29.248a50.175,50.175,0,0,1,.443,5.447c.159,3.487.323,7.094,1.757,10.677.984,2.46,2.325,4.1,5.667,4.1h.023c19.546-.043,37.664-.041,55.4,0h.035c2.267,0,5.3-.543,5.723-5.121.589-6.431,1.417-13.436,2.606-22.046.471-3.41.842-6.875,1.2-10.227.563-5.271,1.147-10.721,2.129-16a90.077,90.077,0,0,0,1.129-11.207c.166-2.827.337-5.751.722-8.553l.43-3.107c1.188-8.552,2.415-17.395,2.778-26.233a14.857,14.857,0,0,0-.243-2.9l-.007-.05c2.988-1.644,4.45-4.756,5.992-10.1a4.127,4.127,0,0,1,1.572-2.606c3.126-2.325,4.751-5.678,6.323-8.921.411-.848.82-1.693,1.255-2.51a17.952,17.952,0,0,1,1.742-2.5,14.2,14.2,0,0,0,3.043-5.471.245.245,0,0,1,.056-.01h0a2,2,0,0,0,.91-3.895Zm-82.724,4.4c.7-.829,1.159-.866,2.649-.866h.1q3.892,0,7.784.01c6.838.015,13.91.029,20.867-.058a4.241,4.241,0,0,1,4.19,2.037c2.345,3.218,4.847,6.381,7.266,9.439,2.868,3.627,5.835,7.378,8.518,11.2a23.23,23.23,0,0,0,2.2,2.567c1.667,1.763,2.729,2.992,2.866,4.712-.846.076-1.8.11-2.909.116-21.657.108-45.278.109-72.215,0a16.238,16.238,0,0,1-2.315-.182,9.705,9.705,0,0,1,1.8-3.5c3.156-3.893,6.113-8,8.974-11.98C74.776,64.252,78.135,59.584,81.76,55.277ZM53.6,77.39a9.284,9.284,0,0,0-.629-2.5,14.363,14.363,0,0,0,2.186-4.279c1.191-4.208,3.782-7.391,7.107-8.731.567-.229,1.148-.488,1.741-.752,3.6-1.607,6.02-2.45,8.5-.5-1.435,1.939-2.843,3.885-4.224,5.8-2.826,3.93-5.749,7.994-8.833,11.8a13.569,13.569,0,0,0-2.473,4.7,7.7,7.7,0,0,1-3.085-4.1A9.13,9.13,0,0,1,53.6,77.39Zm86.244,12.285c-.356,8.644-1.569,17.389-2.744,25.846l-.431,3.113c-.406,2.957-.582,5.959-.752,8.864a85.871,85.871,0,0,1-1.068,10.709c-1.011,5.433-1.6,10.961-2.174,16.308-.355,3.321-.723,6.756-1.185,10.105-1.2,8.672-2.032,15.736-2.626,22.23-.127,1.384-.176,1.471-1.766,1.485-17.737-.043-35.862-.045-55.415,0-1.114,0-1.333,0-1.968-1.584-1.183-2.956-1.324-6.073-1.476-9.374a54.013,54.013,0,0,0-.485-5.88c-1.342-8.62-2.415-17.827-3.377-28.977-.343-3.979-.883-7.975-1.406-11.839-.725-5.359-1.475-10.9-1.685-16.369a55.624,55.624,0,0,0-.984-7.577,57.515,57.515,0,0,1-.9-6.433c-.085-1.37-.266-2.732-.439-4.049-.382-2.889-.742-5.639-.12-8.287a18.656,18.656,0,0,0,4.216.467c13.515.055,26.193.082,38.212.082,11.944,0,23.237-.027,34.038-.081a29.261,29.261,0,0,0,4.412-.311A8.908,8.908,0,0,1,139.843,89.675ZM117.017,43.893,130.5,8.945a2,2,0,0,1,3.186-.782,10.964,10.964,0,0,0,2.687,1.624,8.692,8.692,0,0,1,3.874,2.935,2,2,0,0,1,.126,2,12,12,0,0,0-.79,2.533,22.309,22.309,0,0,1-.607,2.212c-1.785,5.139-3.92,10.2-5.984,15.086-1.932,4.573-3.928,9.3-5.606,14.033a2.894,2.894,0,0,1-3.167,2.108l-.069,0a2,2,0,0,1-.827-3.911,3.018,3.018,0,0,1,.489-.08c1.683-4.672,3.619-9.26,5.5-13.7,2.04-4.831,4.149-9.827,5.891-14.842a18.807,18.807,0,0,0,.494-1.821c.16-.678.324-1.369.558-2.067a10.911,10.911,0,0,0-1.6-.868c-.407-.195-.853-.408-1.321-.662l-12.578,32.6a2,2,0,0,1-3.732-1.44Zm10.624,64.813c-.742-.053-1.46-.039-2.152-.027-.286,0-.573.01-.859.01H70.865a2,2,0,0,0-.2.01,1.975,1.975,0,0,0-.745.063,5.369,5.369,0,0,0-3.37,2.552,5.726,5.726,0,0,0-.387,4.433,42,42,0,0,1,1.294,9.365,50.433,50.433,0,0,0,1.129,9.024,37.811,37.811,0,0,1,.824,7.144,33.7,33.7,0,0,0,1.551,9.927,7.729,7.729,0,0,1,.187,2.846,11.536,11.536,0,0,0,.579,5.047c1.04,2.611,2.571,3.678,5.281,3.678h.715c14.293-.032,29.078-.065,43.613.023h.059c5.3,0,5.851-4.274,6.059-5.888.226-1.765.35-3.538.468-5.253a49.565,49.565,0,0,1,1.073-8.49,55.808,55.808,0,0,0,1.227-9.912,51.83,51.83,0,0,1,1.154-9.391,20.944,20.944,0,0,0,.449-4.913,17.246,17.246,0,0,1,.423-4.455,4.322,4.322,0,0,0-.509-3.8A5.218,5.218,0,0,0,127.641,108.706Zm.754,4.71a20.516,20.516,0,0,0-.572,5.493,17.713,17.713,0,0,1-.33,3.99,55.719,55.719,0,0,0-1.266,10.107,51.979,51.979,0,0,1-1.119,9.208,53.377,53.377,0,0,0-1.179,9.168c-.114,1.658-.233,3.372-.444,5.021-.279,2.17-.664,2.38-2.127,2.4-7.011-.042-14.076-.056-21.117-.056-7.572,0-15.116.017-22.528.033h-.694c-1.046-.007-1.115,0-1.577-1.159a8.043,8.043,0,0,1-.3-3.387,11.062,11.062,0,0,0-.422-4.384,30.216,30.216,0,0,1-1.318-8.779,41.4,41.4,0,0,0-.936-7.9,46.676,46.676,0,0,1-1.019-8.315,45.631,45.631,0,0,0-1.452-10.249,1.839,1.839,0,0,1,.054-1.36,1.226,1.226,0,0,1,.725-.562l.092,0h53.764c.311,0,.621-.005.931-.011.635-.01,1.231-.022,1.8.018a2.311,2.311,0,0,1,1.091.272A1.009,1.009,0,0,1,128.394,113.416Z"/></svg>