<svg xmlns="http://www.w3.org/2000/svg" viewBox="0 0 200 200"><title>icon-delivery</title><path d="M187,142.923h-4.381q-5.109,0-10.219,0c-.188.012-.409,0-.614.007a8.571,8.571,0,0,1-1.528-.069,11.648,11.648,0,0,0,2.812-5.109,19.271,19.271,0,0,1,.715-1.874h.515q.86,0,1.72,0c.71,0,1.419,0,2.129-.013a9.082,9.082,0,0,0,6.506-2.756,8.788,8.788,0,0,0,2.4-6.4c-.127-4.447-.067-9-.01-13.395l0-.134a4.373,4.373,0,0,0-1.306-3.5,3.739,3.739,0,0,0-3.1-.841c-.32.027-1.569.05-3.575.068-.106-1.675-.088-3.36-.062-5.129a40.772,40.772,0,0,0-.7-10.061A59.077,59.077,0,0,0,174,81.725a2.536,2.536,0,0,0-.371-.57,9.513,9.513,0,0,0-.889-3.8c-.082-.205-.164-.411-.241-.619-.392-1.043-.768-2.092-1.145-3.141-.708-1.968-1.439-4-2.262-5.987a19.2,19.2,0,0,0-10.513-10.765,24.308,24.308,0,0,0-8.939-1.48h-.031c-.012-.259-.023-.52-.035-.776a46.911,46.911,0,0,1-.044-5.8,2,2,0,0,0-3.988-.3,50.607,50.607,0,0,0,.036,6.3,46.4,46.4,0,0,1,.036,5.935c-.234,2.916-.179,5.853-.125,8.692.023,1.232.047,2.465.047,3.7,0,1.27.014,2.54.027,3.811.03,2.807.061,5.709-.066,8.528-.088,1.957,0,3.893.092,5.765a49.021,49.021,0,0,1,.028,6.4,84.832,84.832,0,0,0-.13,8.7c.018.89.027,1.78.035,2.669-32.8,0-78.815-.1-101.61-.155-8.738-.02-14.667-.032-16.143-.032a2,2,0,0,0,0,4c1.475,0,7.4.013,16.134.032l10.347.022v.009a33.905,33.905,0,0,1-.058,7.972H35.071a2,2,0,0,0,0,4H54.293a2.356,2.356,0,0,1,.139.644c-.112,1.84-.09,3.682-.068,5.463,0,.249,0,.5.006.745-1.255.011-2.5.051-3.724.095-1.186.042-2.372.085-3.558.1-2.423.022-4.849.017-7.271.013l-23.687,0a2,2,0,0,0,0,4l23.678,0q1.582,0,3.165,0,2.077,0,4.153-.017c1.22-.012,2.44-.055,3.661-.1,2.237-.08,4.352-.155,6.471-.041,1.969.106,3.94.106,5.848.1,1.054,0,2.138.005,3.217.023a17.189,17.189,0,0,0,3.068,6.588c.1.13.192.254.275.376a8.391,8.391,0,0,1-2,.112l-.394-.009c-5.561-.1-11-.18-16.438-.1-6.424.089-12.959.079-19.283.07-5.38,0-10.944-.015-16.422.037l-.5.007a11.378,11.378,0,0,1-3.088-.227,2,2,0,1,0-1.072,3.854,14.6,14.6,0,0,0,4.217.372l.482-.006c5.454-.052,11.007-.044,16.378-.037,6.339.01,12.89.019,19.345-.07,5.372-.074,10.783.007,16.313.1l.371.008a8.532,8.532,0,0,0,4.858-.936c.08.022.17.051.246.074.2.063.409.124.614.174a25.015,25.015,0,0,0,8.785.515c.663-.078,1.3-.212,1.907-.341,1.775-.374,2.83-.552,3.872.144a2.845,2.845,0,0,0,1.614.451,6.266,6.266,0,0,0,.752-.055,2.715,2.715,0,0,1,.3-.028h13.159q21.932,0,43.864,0h.009c.345,0,.692.011,1.04.021a10.248,10.248,0,0,0,5.583-.946c.105.038.21.073.314.1a22.832,22.832,0,0,0,12.548-.009c.117-.033.238-.073.363-.115a7.4,7.4,0,0,0,4.455.955l.546-.006q5.111.006,10.223,0H187a2,2,0,0,0,0-4ZM149.6,61.035c.045-.557.071-1.112.085-1.664a20.447,20.447,0,0,1,7.337,1.159,15.139,15.139,0,0,1,8.375,8.611c.785,1.9,1.5,3.887,2.192,5.811.383,1.065.767,2.132,1.163,3.19.087.231.178.462.27.692a5.209,5.209,0,0,1,.588,2.459,2.6,2.6,0,0,0,.9,2.4,57.625,57.625,0,0,1,3.43,9.113c-.127,0-.258,0-.395,0h-23.88c-.023-.6-.05-1.2-.078-1.789-.088-1.863-.171-3.624-.091-5.4.132-2.931.1-5.89.07-8.751-.014-1.256-.027-2.512-.027-3.768s-.023-2.514-.048-3.771C149.438,66.589,149.385,63.753,149.6,61.035Zm0,36.9c.031-.379.044-.755.061-1.132h23.522l.318,0,.355,0c.29,0,.6-.015.919-.042a49.037,49.037,0,0,1,.222,6.95c-.026,1.7-.045,3.45.054,5.216-5.925.03-14.891.042-25.533.043-.008-.916-.018-1.831-.036-2.748A81.691,81.691,0,0,1,149.605,97.938ZM86.338,139.347a10.409,10.409,0,0,0-1.6,2.857c-.551.081-1.081.189-1.579.294-.549.116-1.067.226-1.553.282a20.693,20.693,0,0,1-7.384-.433c-.123-.029-.245-.068-.366-.105l-.028-.008a8.076,8.076,0,0,0-1.3-2.283A13.755,13.755,0,0,1,70,134.038a6.088,6.088,0,0,1,1.029-3.892,9.4,9.4,0,0,1,8.131-5.249h.093a8.972,8.972,0,0,1,7.775,4.639A8.3,8.3,0,0,1,86.338,139.347Zm62.369,3.595c-.388-.011-.774-.022-1.159-.022h-.011q-21.93.009-43.862,0H90.516a6.727,6.727,0,0,0-.759.056l-.07.009a6.639,6.639,0,0,0-.742-.363,8.445,8.445,0,0,1,.568-.844,13.287,13.287,0,0,0,2.66-5.886c.179,0,.358,0,.537.009a35.847,35.847,0,0,0,4.308-.07,53.841,53.841,0,0,1,7.284-.041c1.628.063,3.313.126,4.994.1,2.811-.05,5.679-.037,8.455-.026q1.871.009,3.742.011h15.736q4.951,0,9.911.006c.185-.021.351-.007.525-.014l.166-.007a11.87,11.87,0,0,0,2.516,5.617,8.678,8.678,0,0,1,.937,1.356A11.311,11.311,0,0,1,148.707,142.941Zm-45.321-11.185c.005-.5.019-.991.02-1.485,0-1.364,0-2.652.1-3.944a2.183,2.183,0,0,1,2.011-1.886c9.849-.029,18.88-.028,27.61,0a2.25,2.25,0,0,1,1.942,2.378c.037,1.476.027,2.992.019,4.459,0,.2,0,.4,0,.593H121.493q-1.863,0-3.726-.011c-2.8-.012-5.688-.024-8.543.026-1.568.03-3.2-.035-4.769-.095C104.1,131.781,103.743,131.77,103.386,131.757Zm46.063-3.957a17.408,17.408,0,0,0-1.568,4.06c-.129,0-.26.005-.375.01s-.236.01-.352.01h0q-4.031-.01-8.062,0c0-.19,0-.38,0-.569.009-1.5.019-3.047-.021-4.585a6.174,6.174,0,0,0-5.927-6.276c-8.739-.03-17.779-.032-27.637,0a6.138,6.138,0,0,0-5.986,5.582c-.109,1.441-.111,2.865-.113,4.243,0,.481-.014.962-.019,1.442-.913.018-1.829.053-2.752.142a32.349,32.349,0,0,1-3.827.055c-.223-.005-.445-.006-.668-.011a13.591,13.591,0,0,0-1.645-4.365A12.924,12.924,0,0,0,79.26,120.9h-.137a13.468,13.468,0,0,0-11.592,7.318,12.986,12.986,0,0,0-1.417,3.63c-1.016-.013-2.027-.018-3.015-.018-1.561.006-3.155-.008-4.729-.067,0-.293,0-.586-.007-.879-.022-1.788-.043-3.477.061-5.171a5.944,5.944,0,0,0-.35-2.207,2.148,2.148,0,0,1-.17-.823,32.529,32.529,0,0,0,.358-9.829c85.582.178,122.216.166,124.775-.035a2.862,2.862,0,0,1,.011.313l0,.135c-.058,4.44-.118,9.031.012,13.563a4.763,4.763,0,0,1-1.29,3.52,5.122,5.122,0,0,1-3.675,1.522c-1.259.018-2.517.013-3.777.009h-.451c-1.476-4.089-3.542-8.726-9.189-10.382A12.95,12.95,0,0,0,149.448,127.8Zm17.916,12.3a4.659,4.659,0,0,0-1.253,2.083l-.168.054a18.6,18.6,0,0,1-10.37.009l-.124-.045-.049-.018a12.52,12.52,0,0,0-1.991-3.283,8.2,8.2,0,0,1-1.767-4.765,9.833,9.833,0,0,1,1.364-4.511,8.972,8.972,0,0,1,10.543-4.293c3.785,1.11,5.146,3.955,6.763,8.489a19.839,19.839,0,0,0-1.036,2.664A7.775,7.775,0,0,1,167.364,140.1ZM23.233,85.165H61.511c.466,0,.783.017,1,.037-.019.242-.064.612-.163,1.176-.081.463-.187.926-.292,1.389a15.888,15.888,0,0,0-.521,3.758c-.407.02-.818.05-1.232.1-1.88.211-4.338,2.024-5.557,4.021-.359-.036-.726-.065-1.115-.066q-5.038-.021-10.072-.01H40.2a2,2,0,0,0,0,4h3.354q5.032-.006,10.057.01c.184,0,.38.013.582.031.593,2.674,2.5,4.093,5.811,4.293.391.023.782.019,1.177.009l.169,0c1.063-.021,2.127-.065,3.191-.11a58.914,58.914,0,0,1,6.688-.034c2.929.209,5.852.136,8.677.063,2.548-.062,5.179-.132,7.733.019,1.982.115,3.977.15,5.955.15,1.547,0,3.083-.021,4.6-.043s3.038-.042,4.556-.042H124.4q5.843,0,11.694,0c1.233.007,4.038,0,4.885-3.047a7.682,7.682,0,0,0-1.376-7,6.065,6.065,0,0,0-5.267-2.229c-.045,0-.093,0-.139-.006a14.735,14.735,0,0,0-.622-4.7l-.119-.482a36.967,36.967,0,0,0-17.2-23.6,46.62,46.62,0,0,0-9.545-4.092,3.242,3.242,0,0,0-.041-.821,8.511,8.511,0,0,0-4.583-6.1,9.353,9.353,0,0,0-8.271.015A8.272,8.272,0,0,1,89.1,53.048a78.168,78.168,0,0,0-8.254-.139c-1.119.021-2.238.041-3.355.041a2,2,0,0,0,0,4c1.142,0,2.285-.021,3.429-.042a73.982,73.982,0,0,1,7.835.124,12.171,12.171,0,0,0,6.825-1.591,5.334,5.334,0,0,1,4.712-.025,4.451,4.451,0,0,1,2.122,2.234,18.42,18.42,0,0,0-4.935.2,20.369,20.369,0,0,1-3.215.229,15.735,15.735,0,0,0-6.856,1.242c-.96.461-1.943.868-2.985,1.3a28.817,28.817,0,0,0-7.181,3.822,27.487,27.487,0,0,1-2.372,1.612,27.5,27.5,0,0,0-3.074,2.16,8.38,8.38,0,0,0-3.491-.674h-.1c-3,.025-6,.021-8.993.017l-14.667,0a2,2,0,0,0,0,4l14.662,0c3.009,0,6.021.008,9.031-.017a7.772,7.772,0,0,1,.834.054,9.438,9.438,0,0,0-.457,1.076c-.026.035-.054.073-.081.112a38.737,38.737,0,0,0-3.6,6.2c-.107.246-.209.5-.312.759a6.6,6.6,0,0,1-.821,1.633,9.731,9.731,0,0,0-2.29-.208H23.233a2,2,0,0,0,0,4Zm42.721,3.487c.119-.528.238-1.056.33-1.583a9.849,9.849,0,0,0,.2-2.687,8.859,8.859,0,0,0,1.858-3.162c.088-.219.173-.435.264-.643A34.331,34.331,0,0,1,71.724,75.2a2.166,2.166,0,0,0,.58-.947c.67-2.277,2.539-3.457,4.7-4.822a30.644,30.644,0,0,0,2.722-1.86,25.432,25.432,0,0,1,6.227-3.262c1.046-.433,2.127-.881,3.188-1.39a12.223,12.223,0,0,1,5.2-.849,23.683,23.683,0,0,0,3.853-.292,12.18,12.18,0,0,1,5.512.184l1.366.465a45.159,45.159,0,0,1,9.1,3.838A32.675,32.675,0,0,1,129.566,87.4l.124.5a10.325,10.325,0,0,1,.481,3.7,6.066,6.066,0,0,1-.89.029c-.163,0-.34,0-.487-.007l-12.611,0c-16.173.006-32.894.01-49.338-.04-.439,0-.877-.017-1.315-.03A11.9,11.9,0,0,1,65.954,88.652Zm-1.141,6.887c.673.021,1.346.043,2.02.045,16.451.051,33.177.048,49.351.04l12.612,0,.4.006a6.39,6.39,0,0,0,2.8-.418,6,6,0,0,0,2.694.412,2.107,2.107,0,0,1,1.831.81,3.7,3.7,0,0,1,.593,3.364c-.007.023-.013.042-.019.059a5.585,5.585,0,0,1-1.009.059q-5.848-.007-11.7,0H102.749c-1.536,0-3.074.021-4.611.043-3.382.047-6.877.1-10.265-.1-1.229-.071-2.457-.1-3.678-.1-1.48,0-2.948.037-4.39.074-2.732.067-5.557.141-8.291-.055a63.015,63.015,0,0,0-7.14.028c-1.034.044-2.067.087-3.1.106l-.181,0c-.278.007-.56.016-.842,0-2.046-.124-2.21-.6-2.263-1.923a5.388,5.388,0,0,1,2.76-2.39A28.016,28.016,0,0,1,64.813,95.539ZM26.561,54.95a2,2,0,0,1,2-2H55a2,2,0,0,1,0,4H28.561A2,2,0,0,1,26.561,54.95Zm81.317,14.667a2,2,0,0,1,2.7-.856A28.984,28.984,0,0,1,122.439,80.4a2,2,0,1,1-3.471,1.988,24.7,24.7,0,0,0-10.234-10.07A2,2,0,0,1,107.878,69.617Z"/></svg>