<svg xmlns="http://www.w3.org/2000/svg" viewBox="0 0 200 200" fill="#ffffff"><title>icon-catering</title><path d="M168,108.25h-1.714a66.7,66.7,0,0,0-57.6-58.425,9,9,0,1,0-17.375,0,66.7,66.7,0,0,0-57.6,58.425H32a6.25,6.25,0,0,0,0,12.5H57.443a3.915,3.915,0,0,0,1.233,3.491c.641.563,1.494,1.243,2.482,2.029,3.257,2.592,10.885,8.66,9.717,11.579-1.317,3.293-1.81,4.524-8.392,9.227-7.245,5.175-30.627,18.774-30.862,18.911a1.75,1.75,0,1,0,1.759,3.025c.961-.558,23.5-13.668,31.007-19l22.2,19.274a.389.389,0,0,1,.016.574L59.285,196.241a1.75,1.75,0,1,0,2.431,2.518l27.319-26.377a3.889,3.889,0,0,0-.151-5.734l-2.694-2.339c8.574-8.22,16.73-13.564,23.305-17.868,3.121-2.042,5.815-3.806,8.077-5.557,8.28-6.413,19.277-11.443,26.553-14.772l1.482-.679a3.44,3.44,0,0,0,1.779-2.057,3.524,3.524,0,0,0-.162-2.626H168a6.25,6.25,0,0,0,0-12.5ZM94.5,47.5a5.5,5.5,0,1,1,10.627,1.962c-1.7-.13-3.408-.212-5.127-.212s-3.427.082-5.127.212A5.492,5.492,0,0,1,94.5,47.5Zm5.5,5.25a62.89,62.89,0,0,1,62.764,55.5H37.236A62.89,62.89,0,0,1,100,52.75Zm44.043,69.55-1.374.629c-7.423,3.4-18.641,8.527-27.241,15.188-2.151,1.666-4.792,3.395-7.85,5.4-6.757,4.422-15.152,9.92-24.044,18.491L67.267,147.882c4.652-3.616,5.529-5.409,6.858-8.731,2.134-5.337-5.642-11.524-10.788-15.619-.952-.757-1.773-1.411-2.349-1.917a.575.575,0,0,1-.048-.566,6.577,6.577,0,0,1,1.227.17,61.627,61.627,0,0,1,7.651,1.895,36.436,36.436,0,0,1,6.316,4.238c3.433,2.621,6.983,5.331,10.062,5.873,7.837,1.38,18.956-2.377,29.711-6.008,6.731-2.273,13.088-4.42,17.8-4.978a97.438,97.438,0,0,1,10.351-.036Zm-29.255,1.6c-9.857,3.329-21.033,7.1-27.984,5.877-2.239-.395-5.589-2.951-8.545-5.207a57.744,57.744,0,0,0-5.392-3.819H124.5C121.437,121.656,118.16,122.761,114.788,123.9ZM168,117.25H32a2.75,2.75,0,0,1,0-5.5H168a2.75,2.75,0,0,1,0,5.5Zm-12.408-11.545a1.731,1.731,0,0,1-.372.04,1.75,1.75,0,0,1-1.709-1.38A55.025,55.025,0,0,0,100,61.25a1.75,1.75,0,0,1,0-3.5,58.544,58.544,0,0,1,56.933,45.875A1.749,1.749,0,0,1,155.592,105.705ZM77.414,26.888a9.4,9.4,0,0,1,.026-3.729A14.6,14.6,0,0,1,82.784,14.4a1.75,1.75,0,1,1,2.144,2.766A11.06,11.06,0,0,0,80.881,23.8a6.005,6.005,0,0,0-.045,2.354,9.811,9.811,0,0,0,1.989,3.509c.438.583.89,1.187,1.3,1.833a14.786,14.786,0,0,1,2.059,5.315,7.436,7.436,0,0,1-.161,3.789,9.082,9.082,0,0,1-1.475,2.52l-1.7,2.269a1.75,1.75,0,0,1-2.8-2.1l1.7-2.271a6.281,6.281,0,0,0,.962-1.551,4.167,4.167,0,0,0,.025-2.051,11.25,11.25,0,0,0-1.567-4.046c-.336-.531-.729-1.054-1.144-1.607A12.713,12.713,0,0,1,77.414,26.888Zm20-10a9.4,9.4,0,0,1,.026-3.729A14.6,14.6,0,0,1,102.784,4.4a1.75,1.75,0,1,1,2.144,2.766,11.06,11.06,0,0,0-4.047,6.636,6.005,6.005,0,0,0-.045,2.354,9.811,9.811,0,0,0,1.989,3.509c.438.583.89,1.187,1.3,1.833a14.786,14.786,0,0,1,2.059,5.315,7.436,7.436,0,0,1-.161,3.789,9.082,9.082,0,0,1-1.475,2.52l-1.7,2.269a1.75,1.75,0,0,1-2.8-2.1l1.7-2.271a6.281,6.281,0,0,0,.962-1.551,4.167,4.167,0,0,0,.025-2.051,11.25,11.25,0,0,0-1.567-4.046c-.336-.531-.729-1.054-1.144-1.607A12.713,12.713,0,0,1,97.414,16.888Zm18,9a9.4,9.4,0,0,1,.026-3.729,14.6,14.6,0,0,1,5.345-8.763,1.75,1.75,0,1,1,2.144,2.766,11.06,11.06,0,0,0-4.047,6.636,6.005,6.005,0,0,0-.045,2.354,9.811,9.811,0,0,0,1.989,3.509c.438.583.89,1.187,1.3,1.833a14.786,14.786,0,0,1,2.059,5.315,7.436,7.436,0,0,1-.161,3.789,9.082,9.082,0,0,1-1.475,2.52l-1.7,2.269a1.75,1.75,0,0,1-2.8-2.1l1.7-2.271a6.281,6.281,0,0,0,.962-1.551,4.167,4.167,0,0,0,.025-2.051,11.25,11.25,0,0,0-1.567-4.046c-.336-.531-.729-1.054-1.144-1.607A12.713,12.713,0,0,1,115.414,25.888ZM78,172a2,2,0,1,1,2-2A2,2,0,0,1,78,172Z"/></svg>
