<svg xmlns="http://www.w3.org/2000/svg" viewBox="0 0 200 200"><title>icon-dimsum</title><path d="M20.7,91.617c4.929-8.54,12.182-14.2,19.188-19.262,7.772-5.616,15.778-5.6,24.476.062a77.257,77.257,0,0,1,7.7,5.711c1.1.932,1.668,1.182,2.439,1.083a2,2,0,0,1,.533,3.964,6.8,6.8,0,0,1-5.554-1.991,73.267,73.267,0,0,0-7.3-5.414c-7.35-4.781-13.5-4.834-19.953-.173C35.577,80.407,28.7,85.76,24.166,93.616c-4.573,7.923-2.689,18.3,4.289,23.632a31.46,31.46,0,0,0,19.421,6.682c.3,0,.6-.016.907-.034a6.637,6.637,0,0,1,4.6.995,2,2,0,0,1-2.352,3.235c-.43-.313-1.019-.294-2.019-.237-.4.023-.794.042-1.179.04a35.328,35.328,0,0,1-21.808-7.5C17.482,113.9,15.144,101.248,20.7,91.617Zm106.32-8.428c1-.748,1.977-1.52,2.959-2.292a68.267,68.267,0,0,1,6.42-4.672c6.442-3.955,11.433-5.579,17.875-2.166A56.119,56.119,0,0,1,174.3,91.94c2.538,3.619,3.733,6.749,3.762,9.852.087,9.186-5.748,16.85-15.227,20a57.38,57.38,0,0,1-12.572,2.227c-.966.1-1.933.2-2.9.307a2,2,0,1,0,.448,3.975c.955-.108,1.907-.2,2.859-.3a61.3,61.3,0,0,0,13.427-2.41c11.185-3.715,18.069-12.847,17.966-23.831-.037-3.949-1.462-7.8-4.487-12.11a60.034,60.034,0,0,0-21.43-19.12c-8.971-4.75-15.977-1.308-21.84,2.293a72.282,72.282,0,0,0-6.8,4.938c-.957.753-1.913,1.506-2.884,2.234a2,2,0,0,0,2.4,3.2ZM96.2,56.209a18.03,18.03,0,0,0,1.731,3.212,15.35,15.35,0,0,1,1.3,2.341,2,2,0,1,0,3.706-1.506,18.686,18.686,0,0,0-1.631-2.975A14.792,14.792,0,0,1,99.93,54.77c-1.92-4.98-1-9.511,2.9-14.26,5.779-7.041,5.99-15.451.578-23.075a3.224,3.224,0,0,0-2.747-1.484,2,2,0,0,0-1.3,3.778,3.072,3.072,0,0,0,.915.206c4.218,6.074,4.03,12.471-.538,18.036C94.9,43.868,93.739,49.834,96.2,56.209Zm40.31-.323a2,2,0,0,0,1.474-3.352c-2.853-3.113-3.225-6.72-1-9.648a16.5,16.5,0,0,0,3.5-12.159,9.854,9.854,0,0,0-1.429-3.838,5.186,5.186,0,0,1-.952-2.6,2,2,0,1,0-4-.165,8.761,8.761,0,0,0,1.447,4.7,6.533,6.533,0,0,1,.95,2.308,12.512,12.512,0,0,1-2.707,9.33c-3.446,4.526-2.976,10.187,1.228,14.774A2,2,0,0,0,136.508,55.886Zm-76.022-2.2a2.875,2.875,0,0,1,.332,1.459c.023.334.048.669.1,1.014a2,2,0,1,0,3.957-.584c-.035-.239-.049-.472-.065-.7A6.674,6.674,0,0,0,63.9,51.6c-2.239-3.673-1.963-6.956.866-10.331,3.861-4.608,3.923-10.377.171-15.828a2,2,0,0,0-3.295,2.268c2.734,3.972,2.754,7.772.058,10.99C57.782,43.378,57.362,48.559,60.485,53.684Zm86.18,34.584a2,2,0,0,0,2.457-1.4,21.012,21.012,0,0,0,.469-6.423c-.035-1.075-.068-2.09-.006-3.082a2,2,0,1,0-3.992-.249c-.074,1.183-.036,2.342,0,3.462a17.721,17.721,0,0,1-.33,5.237A2,2,0,0,0,146.665,88.268Zm-38.97-11.991a67.279,67.279,0,0,1,26.273,23.076c4.979,7.325,5.961,21.617-.235,29.064-6.878,8.268-15.841,11.042-23.7,12.666a50.751,50.751,0,0,1-10.308,1.055,60.1,60.1,0,0,1-20.071-3.672c-8.962-3.156-15.475-9.627-17.87-17.753-2.326-7.892-.422-16.348,5.358-23.811,9.035-11.664,18.678-18.893,30.35-22.752a2.022,2.022,0,0,1,.827-.092C101.851,73.67,104.91,74.893,107.695,76.276Zm-8.956,1.759a1.628,1.628,0,0,1-.292.012c-10.747,3.623-19.7,10.4-28.143,21.3-4.973,6.42-6.636,13.6-4.684,20.23,2.027,6.879,7.626,12.387,15.362,15.112,10,3.522,19.241,4.331,28.241,2.473,10.183-2.1,16.594-5.485,21.437-11.308,4.888-5.876,4.086-18.249,0-24.257a63.376,63.376,0,0,0-24.746-21.743C103.672,78.744,101.254,77.755,98.738,78.036ZM184,157.686c-.017,6.7-2.816,11.269-8.809,14.394-8.536,4.452-17.876,6.449-26.909,8.38l-1.254.269c-8.146,1.747-26.088,3.477-26.928,3.49-3.55.056-12.326.084-21.1.084s-17.547-.028-21.1-.084c-.841-.014-18.783-1.744-26.93-3.49l-1.252-.268c-9.034-1.931-18.375-3.928-26.911-8.38-5.993-3.125-8.792-7.7-8.809-14.394-.01-3.978.135-7.4.276-10.716a114.3,114.3,0,0,0-.265-18.259,2,2,0,0,1,3.165-1.829c.107.078,10.773,7.8,17.323,9.464,9.741,2.48,19.509,4.475,29.862,6.1,5.673.89,11.5,1.215,17.144,1.529,2.031.113,4.059.226,6.082.364,3.733.255,19.093.256,22.826,0,2.023-.138,4.051-.251,6.082-.365,5.639-.315,11.47-.64,17.144-1.529,10.353-1.622,20.122-3.617,29.862-6.1,6.549-1.668,17.216-9.386,17.323-9.464a2,2,0,0,1,3.165,1.829,114.292,114.292,0,0,0-.266,18.258C183.864,150.282,184.009,153.708,184,157.686Zm-4-.01c.01-3.888-.134-7.268-.272-10.537a134.835,134.835,0,0,1-.07-14.606c-3.925,2.582-10.343,6.46-15.168,7.689-9.864,2.512-19.752,4.531-30.23,6.173-5.87.92-11.8,1.251-17.54,1.571-2.014.112-4.026.225-6.032.361-3.932.269-19.439.269-23.371,0-2.006-.137-4.018-.249-6.032-.361-5.737-.32-11.67-.651-17.54-1.571-10.478-1.642-20.367-3.662-30.23-6.173-4.825-1.229-11.244-5.107-15.168-7.689a134.836,134.836,0,0,1-.07,14.606c-.139,3.269-.282,6.648-.272,10.537.013,5.183,2,8.43,6.659,10.857,8.055,4.2,16.722,6.054,25.9,8.016l1.255.269c8.1,1.736,25.489,3.365,26.2,3.4,7.032.111,34.946.11,42.024,0,.664-.037,18.058-1.667,26.153-3.4l1.257-.269c9.175-1.962,17.842-3.815,25.9-8.015C178,166.106,179.986,162.859,180,157.676Z"/></svg>