<svg xmlns="http://www.w3.org/2000/svg" viewBox="0 0 200 200"><title>icon-seafood</title><path d="M193.054,120.557c-3.239-1.422-5.944-.17-8.118.834a8.723,8.723,0,0,1-3.61,1.1,80.707,80.707,0,0,0-12.549.78c-6.713.773-13.053,1.5-19.525-.457a30.11,30.11,0,0,0-3.127-.717c-2.3-.439-3.893-.8-5.072-1.966.094-.215.19-.424.285-.636a6.249,6.249,0,0,0,2.509.647c.119,0,.239,0,.36-.016,9.182-.845,18.993-2.252,28.533-6.789,5.885-2.8,12.768-7.314,13.766-17.536.171-1.758.439-1.791.749-1.829a2,2,0,1,0-.492-3.97c-3.757.466-4.119,4.189-4.244,5.471-.639,6.543-3.97,10.673-11.5,14.252-8.976,4.269-18.368,5.607-27.176,6.418h0a3.554,3.554,0,0,1-.892-.306,26.672,26.672,0,0,0,1.367-4.009h0c.607.01,1.213.015,1.821.031.954.025,1.926.051,2.909.051,5.34,0,10.942-.764,15.064-6.523a7.932,7.932,0,0,1,.82-.244c.294-.077.584-.154.849-.242,4.725-1.561,7.079-5.166,9.085-8.725,5.35-9.49,2.319-18.112-1.753-26.017-5.028-9.758-12.753-18.376-23.618-26.344-7.163-5.254-15.552-7.362-24.939-6.262-3.244.379-5.1,2.387-5.493,4.208a4.58,4.58,0,0,0,.671,3.852c1.436,1.935,4.137,2.15,6.306,2.323l.157.013a5.2,5.2,0,0,1,3.9,2.359A4.619,4.619,0,0,1,130.838,54a8.085,8.085,0,0,1-4.767-1.411c-1.771-1.069-2.429-2.118-2.427-2.528a2,2,0,0,0-1.986-2.007h-.014a2,2,0,0,0-2,1.979c-.014,1.382.048,13.584,6.477,16.426A32.094,32.094,0,0,1,140.25,79.02a21.02,21.02,0,0,0,5.7,5.457,20.477,20.477,0,0,1,3.994,3.487,51.134,51.134,0,0,0-7.464,3.775c-8.133-13.106-20.137-19.717-35.673-19.691-1.6,0-3.19-.013-4.777-.031-8.276-.095-16.833-.194-25.4,3.207A35.445,35.445,0,0,0,58.12,91.9c-.05-.033-.1-.072-.15-.1a64.462,64.462,0,0,0-8.28-3.841,20.506,20.506,0,0,1,3.99-3.483,21.02,21.02,0,0,0,5.7-5.457,32.1,32.1,0,0,1,14.13-12.558C79.937,63.62,80,51.418,79.986,50.036a2,2,0,0,0-2-1.979h-.014a2,2,0,0,0-1.986,2.007c0,.41-.656,1.459-2.427,2.528A8.057,8.057,0,0,1,68.792,54a4.619,4.619,0,0,1,.743-3.694,5.2,5.2,0,0,1,3.9-2.359l.158-.013c2.169-.173,4.87-.388,6.306-2.323a4.581,4.581,0,0,0,.671-3.853c-.4-1.821-2.249-3.829-5.493-4.207-9.383-1.1-17.776,1.008-24.94,6.262C39.272,51.786,31.546,60.4,26.519,70.16c-4.072,7.9-7.1,16.527-1.753,26.017,2.006,3.559,4.36,7.164,9.085,8.725.265.088.554.165.848.242a7.933,7.933,0,0,1,.82.244c4.122,5.76,9.723,6.523,15.064,6.523.982,0,1.955-.026,2.908-.051s1.908-.051,2.855-.051c.049,0,.076,0,.148,0a1.985,1.985,0,0,0,.321-.032c.384,1.23.827,2.435,1.312,3.614-.189.076-.377.151-.564.23a4.989,4.989,0,0,1-2.438.615c-9.317-.964-18.351-2.2-26.453-6.676a25.575,25.575,0,0,0-3.42-1.476c-3.072-1.15-4.979-1.981-5.468-4.453a32.2,32.2,0,0,0-2.071-6.149,30.761,30.761,0,0,1-1.725-4.892,2,2,0,0,0-3.9.891,34.262,34.262,0,0,0,1.931,5.536,28.679,28.679,0,0,1,1.841,5.391c.947,4.784,4.852,6.247,7.989,7.422a22.387,22.387,0,0,1,2.89,1.231c8.76,4.839,18.231,6.145,27.975,7.153a6.39,6.39,0,0,0,.667.035,9.368,9.368,0,0,0,3.732-.941c.217-.091.436-.182.657-.269.148.3.3.605.447.906-2.656,1.813-5.765,2.23-9.034,2.665a28.165,28.165,0,0,0-8.52,2.069,2.7,2.7,0,0,1-.41-.064,77.47,77.47,0,0,0-12.784-1.385c-5.9-.307-11.467-.6-16.788-2.708-.237-.094-.469-.214-.7-.331-1.124-.566-3.218-1.618-5.446.082a2,2,0,1,0,2.426,3.18c.2-.154.241-.183,1.221.311.338.171.679.339,1.024.476,5.931,2.354,12.095,2.674,18.055,2.984a73.34,73.34,0,0,1,12.128,1.3,4.319,4.319,0,0,0,2.859-.166,24.337,24.337,0,0,1,7.462-1.78c3.308-.44,6.981-.929,10.308-3.024a16.8,16.8,0,0,0,2.06,2.546c-1.929,1.76-4.488,2.377-7.2,3.012a22.912,22.912,0,0,0-7.218,2.589c-.9.564-1.809,1.116-2.719,1.667-6.911,4.191-14.056,8.524-16.549,17.845a14.253,14.253,0,0,1-1.481,3.147c-.326.574-.651,1.148-.942,1.732a2,2,0,1,0,3.578,1.788c.26-.52.552-1.033.843-1.545a17.443,17.443,0,0,0,1.867-4.088c2.078-7.768,8.237-11.5,14.759-15.458.926-.562,1.853-1.124,2.769-1.7A19.621,19.621,0,0,1,57.8,133c3.039-.712,6.457-1.536,9.187-4.15a10.125,10.125,0,0,1,2.9,3.864,8.1,8.1,0,0,0-7.058,2.019c-2.927,2.579-4.6,7.087-4.311,11.544a6.19,6.19,0,0,0-2.182,4.585c-.068,3.659,2.35,7.29,6.308,9.476a20.777,20.777,0,0,0,9.881,2.386,22.182,22.182,0,0,0,2.522-.143,7.687,7.687,0,0,0,1.068.043,2.1,2.1,0,0,0-.755-4.122l-.261.04a3.938,3.938,0,0,1-1.833-.962,7.218,7.218,0,0,1-1.443-2.5l-1.848-4.442a9.907,9.907,0,0,0-2.458-3.861,7.568,7.568,0,0,0-5.029-1.886,10.221,10.221,0,0,1,2.987-7.152,4.089,4.089,0,0,1,3.669-1.094c1.668.351,3.358.622,4.992.884,4.2.674,8.169,1.311,11.989,3.2,9.1,4.511,18.627,4.53,26.824.056,3.636-1.985,7.546-2.529,11.685-3.105,2.055-.286,4.18-.582,6.276-1.068a3.493,3.493,0,0,1,3.1.971,11.264,11.264,0,0,1,3.38,7.518,7.481,7.481,0,0,0-3.247,1.675,9.9,9.9,0,0,0-2.459,3.861l-1.848,4.443a7.223,7.223,0,0,1-1.443,2.5,3.938,3.938,0,0,1-1.834.962l-.261-.04a1.974,1.974,0,0,0-1.235.2,2,2,0,0,0,.48,3.924,7.37,7.37,0,0,0,1.068-.043,22.2,22.2,0,0,0,2.522.143,20.78,20.78,0,0,0,9.88-2.385c3.958-2.186,6.376-5.817,6.308-9.477a6.029,6.029,0,0,0-3.919-5.583,15.164,15.164,0,0,0-4.8-10.746,7.594,7.594,0,0,0-5.9-1.937,20.166,20.166,0,0,1,1.94-3.18c.393.224.808.508,1.249.813a8.824,8.824,0,0,0,4.226,1.909c9.168.717,15.708,6.226,22.631,12.059l.844.71c2.378,2,3.474,4.908,4.659,8.5.336,1.019.721,2.014,1.093,2.976.167.431.334.863.5,1.3a2,2,0,0,0,3.745-1.4c-.167-.446-.339-.891-.511-1.336-.371-.957-.721-1.862-1.025-2.785-1.09-3.308-2.447-7.423-5.883-10.312l-.841-.708c-7.1-5.983-14.446-12.17-24.9-12.988a6.271,6.271,0,0,1-2.263-1.211c-.273-.189-.552-.38-.838-.567a34.974,34.974,0,0,1,3.448-2.913c2.006,1.683,4.413,2.148,6.6,2.566a26.719,26.719,0,0,1,2.719.617,35.343,35.343,0,0,0,10.373,1.423,93.924,93.924,0,0,0,10.769-.82,76.186,76.186,0,0,1,11.926-.758,11.726,11.726,0,0,0,5.454-1.467c2.073-.957,3.318-1.466,4.832-.8a2,2,0,0,0,1.607-3.663ZM64.835,149.75a6.392,6.392,0,0,1,1.44,2.423l1.848,4.442a18.8,18.8,0,0,0,.808,1.758,15.11,15.11,0,0,1-4.358-1.534c-2.657-1.467-4.283-3.728-4.243-5.9a2.044,2.044,0,0,1,1.795-2.028,2.85,2.85,0,0,1,.4-.028A3.669,3.669,0,0,1,64.835,149.75Zm72.243,7.09a15.113,15.113,0,0,1-4.358,1.534,18.766,18.766,0,0,0,.808-1.757l1.848-4.443a6.393,6.393,0,0,1,1.44-2.423,3.665,3.665,0,0,1,2.308-.866,2.852,2.852,0,0,1,.4.028,2.044,2.044,0,0,1,1.795,2.028C141.361,153.111,139.736,155.372,137.078,156.84Zm11.239-75.587a17.7,17.7,0,0,1-4.706-4.4A36.445,36.445,0,0,0,127.738,62.8c-1.8-.8-2.915-3.621-3.518-6.666a14.416,14.416,0,0,0,4.8,1.787c4.2.676,5.329-1.759,5.576-2.52a8.576,8.576,0,0,0-1.171-7.315,9.178,9.178,0,0,0-6.909-4.126l-.159-.013c-.915-.073-3.059-.244-3.412-.719a1.109,1.109,0,0,1,.025-.617c.054-.224.663-.925,2.05-1.087a30.248,30.248,0,0,1,22.109,5.515c10.354,7.594,17.69,15.756,22.428,24.951,4.113,7.984,6,14.818,1.824,22.221-2.078,3.686-3.786,5.877-6.855,6.891-.189.062-.4.115-.606.169l-.343.092a21.625,21.625,0,0,1-3.814-5.969l-.317-.635a2,2,0,0,0-3.576,1.791l.311.625a26.675,26.675,0,0,0,4.139,6.577c-3.6,4.379-8.477,4.255-14.075,4.107-.383-.01-.764-.011-1.146-.019.8-5.046.558-9.2-.743-12.564,5.285-3.194,9.666-4.885,14.075-5.413,3.914-.469,8.413-1.4,12.109-4.788a2,2,0,1,0-2.7-2.951c-2.853,2.611-6.437,3.354-9.885,3.767a30.386,30.386,0,0,0-4.043.769A19.991,19.991,0,0,0,148.317,81.252ZM53.386,107.861c-5.685.151-10.624.268-14.241-4.325l4.863-7.294a2,2,0,0,0-3.328-2.219l-4.854,7.28-.114-.03c-.21-.055-.417-.107-.605-.169-3.069-1.014-4.777-3.2-6.855-6.892-4.173-7.4-2.289-14.236,1.824-22.22C34.812,62.8,42.148,54.636,52.5,47.042c6.321-4.636,13.76-6.491,22.109-5.515,1.387.162,2,.863,2.05,1.086a1.112,1.112,0,0,1,.025.618c-.353.476-2.5.647-3.412.719l-.16.013a9.176,9.176,0,0,0-6.908,4.127A8.576,8.576,0,0,0,65.037,55.4c.248.761,1.384,3.193,5.576,2.52a14.418,14.418,0,0,0,4.773-1.773C74.792,59.129,73.7,62,71.892,62.8A36.446,36.446,0,0,0,56.018,76.852a17.7,17.7,0,0,1-4.706,4.4,19.871,19.871,0,0,0-5.624,5.464,30.465,30.465,0,0,0-4.2-.755c-4.667-.483-7.785-1.645-10.428-3.886a2,2,0,0,0-2.586,3.052c4.178,3.541,8.929,4.432,12.6,4.813,5.487.569,10.66,3.039,15,5.38a1.983,1.983,0,0,0,.563.193c-.25.757-.476,1.518-.652,2.286a24.654,24.654,0,0,0-.148,10.02C55.018,107.827,54.2,107.84,53.386,107.861Zm72.637,25.577c-.64.1-1.286.188-1.947.28-4.313.6-8.773,1.221-13.051,3.557-7.017,3.831-15.233,3.786-23.13-.129-4.364-2.163-8.821-2.877-13.132-3.569l-.616-.1c-.471-3.918-3.045-6.283-5.338-8.384a16.767,16.767,0,0,1-3.849-4.439,1.977,1.977,0,0,0-.186-.576c-3.44-6.606-6.652-13.7-4.893-21.384,1.913-8.36,9.068-16.112,18.228-19.751,7.831-3.11,15.625-3.018,23.874-2.925,1.414.016,2.832.033,4.255.033.249,0,.5,0,.746,0,14.524,0,25.61,6.456,32.949,19.188,1.995,3.461,2.161,8.729.493,15.658a33.632,33.632,0,0,1-2.239,5.847c-.44.972-.885,1.954-1.3,2.962a1.968,1.968,0,0,0-.058.214C131.243,123.981,127.8,128.3,126.023,133.439ZM86.509,71.384l.781.46a2,2,0,0,0,2.828-.849,4.081,4.081,0,0,1,1.252-.873c1.462-.814,4.163-2.316,3.279-6.206,0-.046.009-.093.011-.14.177-3.853-1.985-6.135-6.429-6.782-4.518-.662-6.181,3.573-6.728,4.964C79.423,67.248,83.687,69.737,86.509,71.384Zm-1.283-7.962c.783-1.991,1.363-2.494,2.116-2.494a2.194,2.194,0,0,1,.313.024c2.893.421,3.07,1.319,3.009,2.64a2.067,2.067,0,0,0,.015.353,2,2,0,0,0,.045.754c.252,1,.18,1.1-1.3,1.927a11.61,11.61,0,0,0-1.5.946C84.962,65.8,84.566,65.1,85.226,63.422Zm21.993,6.035a8.229,8.229,0,0,0,4.846,1.807,6.535,6.535,0,0,0,5.154-2.718c.069-.087.147-.177.228-.271.612-.713,2-2.323,1.321-4.44a1.991,1.991,0,0,0-.368-1.314c-2.672-3.735-4.572-5.762-6.957-5.778-2.179.036-3.787,1.751-5.191,3.66C104.187,63.209,102.876,66.249,107.219,69.457Zm2.254-6.685c1.384-1.882,1.9-2.02,1.938-2.03.247.026,1.061.441,3.38,3.616a2,2,0,0,0,.159.579,3.541,3.541,0,0,1-.539.73c-.114.133-.223.26-.32.382-.873,1.093-2.088,1.97-4.5.19C108.028,65.082,107.865,64.96,109.474,62.772Z"/></svg>