<svg xmlns="http://www.w3.org/2000/svg" viewBox="0 0 200 200"><title>catering</title><path d="M188.6,151.994c-1.454-1.793-2.823-3.614-4.273-5.543a127.658,127.658,0,0,0-8.388-10.358,3.992,3.992,0,0,0-5.058-.659c-1.351.85-2.7,1.727-4.057,2.6-.2-.269-.4-.539-.594-.808-.794-1.075-1.615-2.187-2.373-3.293-2.146-3.135-4.44-6.449-6.747-9.782-2.144-3.1-4.3-6.209-6.355-9.21,2.31-.042,4.678-.084,7.009-.086,5.388,0,10.258-3.758,10.855-8.368.829-6.395-2.258-8.911-7.872-11.1A7.955,7.955,0,0,0,158.4,95.1a66.777,66.777,0,0,0-13.23-38.875c-10.408-13.993-23.42-22.416-39.778-25.75-2.15-.438-5.371-1.3-7.487-1.882.208-.426.436-.848.688-1.273,2.189-3.694.791-9.327-3.054-12.3a9.842,9.842,0,0,0-11.332.009c-3.348,2.631-5.419,8.329-3.037,12.3a16.217,16.217,0,0,1,.816,1.536,12.7,12.7,0,0,1-2.6.8C53.1,33.447,34.822,48.525,25.057,74.482A55.886,55.886,0,0,0,21.329,95.69a32.723,32.723,0,0,0-4,.252,8.885,8.885,0,0,0-6.29,7.781,8.751,8.751,0,0,0,2.215,7.134,12.615,12.615,0,0,0,9.115,4.06h.092c8.786-.074,17.726-.062,26.368-.047h1.35c-3.482,8.974.347,13.009,4.32,14.809a19.564,19.564,0,0,0,6.247,1.332c.747.075,1.492.149,2.22.258q25.288,3.791,50.585,7.539a7.672,7.672,0,0,0,1.458.044c.182-.008.363-.016.541-.011,5.793.187,9.382,1.246,11.751,6.3a46.977,46.977,0,0,0,4.791,7.56,53.206,53.206,0,0,1,3.888,5.895c-3,2.014-6.012,4.028-9.018,6.006a3.986,3.986,0,0,0-.983,5.755c2.3,3.009,7.887,10.479,10.087,14.83a3.064,3.064,0,0,0,2.618,1.448,3.969,3.969,0,0,1,.4.061,1.98,1.98,0,0,0,.485.06,2,2,0,0,0,.482-3.94,7.43,7.43,0,0,0-.79-.138c-2.429-4.5-7.319-11.1-10.107-14.733,5.7-3.748,11.426-7.622,16.967-11.369,8.794-5.947,17.889-12.1,26.874-17.766a124.539,124.539,0,0,1,8.127,10.046c1.408,1.873,2.863,3.81,4.364,5.659a2,2,0,1,0,3.106-2.52ZM28.8,75.891c9.342-24.833,26.075-38.657,51.156-42.263a22.381,22.381,0,0,0,5.491-1.923l1.57-.78-.568-1.659A20.4,20.4,0,0,0,84.6,25.273c-1.1-1.84-.055-5.422,2.078-7.1a6,6,0,0,1,6.415.009c2.248,1.738,3.23,5.121,2.059,7.1a21.227,21.227,0,0,0-1.84,3.983l-.681,1.988,2.02.582c.258.074,6.36,1.829,9.943,2.561,15.351,3.128,27.574,11.05,37.368,24.217A62.823,62.823,0,0,1,154.4,94.949c-7.777-.206-25.407-.343-65.961-.085-9.065.057-46.475.313-63.108.712A51.9,51.9,0,0,1,28.8,75.891Zm-6.374,35.025h-.06a8.57,8.57,0,0,1-6.112-2.7A4.794,4.794,0,0,1,15,104.262a4.951,4.951,0,0,1,3.517-4.5c8.025-.82,135.65-1.37,140.9-.606,5.01,1.972,5.675,3.374,5.23,6.809-.3,2.307-3.2,4.88-6.891,4.882-2.56,0-5.151.05-7.658.1-3.3.063-6.713.124-10.065.082-12.694-.159-25.521-.2-38.224-.2-7.124,0-14.209.014-21.208.026q-15.887.028-31.772.016C40.182,110.854,31.233,110.842,22.427,110.916Zm121.46,42.345q-2.268,1.534-4.575,3.091a60.083,60.083,0,0,0-3.986-6,43.384,43.384,0,0,1-4.4-6.9c-3.393-7.237-9.332-8.412-15.247-8.6-.275-.009-.551,0-.825.012a4.862,4.862,0,0,1-.717,0q-25.291-3.751-50.576-7.537c-.792-.119-1.6-.2-2.414-.282a16.455,16.455,0,0,1-5-1c-2.581-1.17-5.107-3.478-1.714-11,.025-.055.036-.111.056-.167q13.061.008,26.122-.013c19.464-.035,39.591-.073,59.375.175q1.164.015,2.332.014c1.217,0,2.432-.012,3.642-.028,2.5,3.663,5.184,7.545,7.858,11.409,2.3,3.327,4.593,6.636,6.734,9.765.8,1.167,1.642,2.308,2.457,3.411.147.2.293.4.44.6C156.868,144.487,150.3,148.925,143.887,153.261Z" fill="#030303"/></svg>