<svg xmlns="http://www.w3.org/2000/svg" viewBox="0 0 200 200"><title>lunch</title><path d="M93.18,47.3c3.257-3.973,4.84-8.661,4.341-12.863A10.323,10.323,0,0,0,93.5,27.216a2,2,0,1,1,2.413-3.19,14.427,14.427,0,0,1,5.576,9.937c.626,5.277-1.276,11.062-5.22,15.871-2.549,3.109-5.087,6.954-4.579,11.894a6.632,6.632,0,0,0,4.754,5.934,2,2,0,1,1-1.183,3.821,10.61,10.61,0,0,1-7.551-9.346C87.052,55.7,90.287,50.824,93.18,47.3Zm24.092,15.172a2,2,0,1,0,3.029-2.611c-3.363-3.9-3.423-5.974-.289-10.078,2.456-3.216,4.942-7.072,3.332-12.145-.6-1.9-2.009-6.342-7.143-5.585a2,2,0,1,0,.583,3.957c1.369-.2,1.893.146,2.747,2.838.937,2.954-.225,5.269-2.7,8.507C112.521,53,112.64,57.1,117.272,62.468Zm-48.153,0a2,2,0,0,0,3.029-2.611c-3.389-3.932-3.459-6.1-.327-10.067,4.511-5.72,5.042-10.624,1.67-15.433a5.462,5.462,0,0,0-5.175-2.329,2,2,0,0,0,.023,4h.024c1.3-.013,1.436.032,1.852.625,1.941,2.769,2.423,5.641-1.536,10.66C64.4,52.746,64.522,57.137,69.119,62.468Zm41.9,48.544c-.619.164-1.243.313-1.867.463a36.121,36.121,0,0,0-4.889,1.425c-.892.349-2.552,1-3.071,2.662a3.727,3.727,0,0,0,.655,3.281,2,2,0,0,0,3.434-2.039c.169-.073.356-.146.51-.206a32.522,32.522,0,0,1,4.293-1.233c.655-.156,1.31-.313,1.958-.485a2,2,0,1,0-1.023-3.867ZM75.219,98.144H62.226a2,2,0,0,0,0,4H75.219a2,2,0,0,0,0-4Zm-10.661,8.544-6.879,2.675a2,2,0,1,0,1.449,3.729l6.879-2.675a2,2,0,1,0-1.449-3.729ZM140.4,121.175c.257.073.513.157.769.24a13,13,0,0,0,2.176.562,2.44,2.44,0,0,1,1.57.651,2.51,2.51,0,0,1,.172,1.678,2,2,0,0,0,1.68,2.274,1.95,1.95,0,0,0,.3.022,2,2,0,0,0,1.975-1.7,5.52,5.52,0,0,0-5.129-6.882,9.638,9.638,0,0,1-1.51-.408c-.3-.1-.6-.194-.9-.28a2,2,0,1,0-1.1,3.846Zm-6.734,3.681a2,2,0,0,0,3.834,1.135,4.307,4.307,0,0,0,.079-2.054l0-.034a2,2,0,0,0-2.06-3.4,3.47,3.47,0,0,0-1.893,4.013A3.19,3.19,0,0,1,133.668,124.855Zm57.675-79.44c-1.119,10.128-51.109,44.449-51.611,44.768a1.58,1.58,0,0,0-.842,1.838,25.106,25.106,0,0,1,.588,6.611c0,.657,0,1.315.015,1.973a2,2,0,0,1-1.679,2.019,31.651,31.651,0,0,0,8.124.889c3.322.028,5.892,1.769,8.16,3.3l.177.12c8.689,5.877,11.988,14.57,9.85,25.833q5.8,0,11.609,0h.416c2.058,0,5.482-.021,6.773,3.641a8.1,8.1,0,0,1-1.865,8.509,69.543,69.543,0,0,1-28.383,19.155c-2.868,1.024-5.832,1.806-8.7,2.562-2.7.712-5.492,1.447-8.141,2.375-1.637.572-2.486,1-3.191,2.031-3.316,4.835-8.021,5.565-11.876,5.565-.163,0-.324,0-.483,0-6.824-.1-33.744-.1-40.568,0-3.952.051-8.9-.521-12.359-5.562-.706-1.03-1.555-1.459-3.191-2.031-2.649-.928-5.441-1.663-8.141-2.375-2.867-.756-5.831-1.537-8.7-2.562a69.543,69.543,0,0,1-28.383-19.155,8.1,8.1,0,0,1-1.865-8.509c1.292-3.661,4.725-3.645,6.773-3.641h.415c1.03,0,2.059,0,3.089,0q0-.837-.011-1.674c-.019-1.774-.038-3.609.044-5.437a18.058,18.058,0,0,1,1.662-7.312c2.984-6.078,8.006-10.256,15.353-12.772a5.333,5.333,0,0,0,1.3-.567,1.552,1.552,0,0,0,.034-.552c-.312-5.628,2.121-10.178,4.8-14.257,5.53-8.427,20.069-11.4,28.809-5.881,1.034.654,1.681.7,3.257-.306,3.814-2.446,9.175-3.2,14.339-2.02a19.881,19.881,0,0,1,3.326,1.072,37.818,37.818,0,0,1,9.972-4.826,24.753,24.753,0,0,1,19.416,1.693c2.125,1.143,2.584,1.01,3.982-.176,2.388-2.025,4.919-3.914,7.367-5.742,1.231-.919,2.462-1.838,3.679-2.776l3.82-2.945c10.262-7.906,19.955-15.374,30.231-23.838,6.149-5.067,9.745-3.81,11.686-1.87A3.383,3.383,0,0,1,191.343,45.416Zm-15.619,91.358q-6.957-.01-13.916,0H38.191q-6.957,0-13.917,0h-.587c-2.2,0-2.566.2-2.836.971a4.1,4.1,0,0,0,1.058,4.5A65.583,65.583,0,0,0,48.67,160.31c2.708.967,5.588,1.727,8.374,2.461s5.645,1.488,8.442,2.468a9.29,9.29,0,0,1,5.17,3.545c1.907,2.782,4.5,3.89,9,3.823,6.845-.1,33.841-.1,40.686,0,4.484.072,7.094-1.042,9-3.823a9.287,9.287,0,0,1,5.17-3.545c2.8-.979,5.667-1.736,8.442-2.468s5.666-1.494,8.374-2.461a65.583,65.583,0,0,0,26.762-18.071,4.1,4.1,0,0,0,1.058-4.5c-.277-.784-.651-.978-2.985-.971ZM145.9,107.513c-5.306-.045-11.381-.47-16.468-4.934a6.792,6.792,0,0,0-.735-.037,19.517,19.517,0,0,1-12.733-4.271,2.2,2.2,0,0,0-.425-.271c-6.542,1.394-9.492-3.42-11.657-6.95l-.128-.209a10.02,10.02,0,0,0-3.646-3.387,1.983,1.983,0,0,1-1.3-.653,15.8,15.8,0,0,0-2.764-.907c-4.078-.933-8.4-.362-11.289,1.488-1.861,1.193-4.4,2.311-7.551.321-6.96-4.392-18.953-1.98-23.329,4.692-2.659,4.053-4.382,7.617-4.147,11.84.2,3.678-2.447,4.585-4.031,5.127-6.293,2.155-10.564,5.672-13.058,10.751a13.779,13.779,0,0,0-1.256,5.727c-.077,1.719-.058,3.5-.041,5.219q.009.857.012,1.713,3.419,0,6.838,0H160.055c2.125-10.058-.5-17.428-8.022-22.52l-.179-.121C149.881,108.792,148.018,107.53,145.9,107.513ZM187.325,45.2c-1.548-1.018-4.4.978-6.016,2.312-10.364,8.536-20.082,16.023-30.37,23.949l-3.819,2.943c-1.232.951-2.48,1.883-3.728,2.814-2.4,1.791-4.879,3.643-7.173,5.587-3.125,2.647-5.556,2.21-8.462.648a20.8,20.8,0,0,0-16.307-1.406,35.084,35.084,0,0,0-7.345,3.281,13.288,13.288,0,0,1,3.062,3.415l.13.211c2.356,3.84,3.874,5.97,7.6,5.087a4.574,4.574,0,0,1,3.612,1.138,15.49,15.49,0,0,0,10.232,3.359,4.714,4.714,0,0,1,3.2.912,13.875,13.875,0,0,0,4.094,2.565,1.987,1.987,0,0,1-.543-1.307c-.019-.7-.017-1.393-.016-2.089a21.718,21.718,0,0,0-.457-5.585,5.556,5.556,0,0,1,2.569-6.232c3.689-2.341,16.185-11.23,27.948-20.61C184.528,51.055,187.01,46.3,187.325,45.2Z"/></svg>