<svg xmlns="http://www.w3.org/2000/svg" viewBox="0 0 200 200"><title>szechuan</title><path d="M190.751,102.735c-2.575-2.693-5.521-2.906-8.751-.638q-2.054,1.442-4.093,2.905c-1.705,1.217-3.41,2.434-5.131,3.63a40.943,40.943,0,0,1-14.694,6.563c-2.614.567-4.367-.029-5.867-1.993a63.793,63.793,0,0,0-6.574-7.029l-.236-.228a7.749,7.749,0,0,1-1.943-2.544,8.353,8.353,0,0,0-3.737-3.771,22,22,0,0,0-13.311-2.684,117.194,117.194,0,0,0-34.148,8.6A142.061,142.061,0,0,0,64.523,120.71c-8.81,6.182-16.039,9.745-23.442,11.554-3.533.862-15.979-1.99-23-3.99a2.024,2.024,0,0,0-2.362,1,1.957,1.957,0,0,0,.53,2.458,27.9,27.9,0,0,1,2.081,3.728c1.327,2.626,2.269,4.418,3.21,5.361,8.3,8.317,17.8,12.509,28.319,12.508a42.057,42.057,0,0,0,6.029-.443c4.1-.593,8.223-1.335,12.214-2.053s8.144-1.464,12.219-2.051c7.958-1.146,16.187-2.329,24.02-.223,3.968,1.067,8.2,2.17,12.445,2.895,5.817.991,12.412,2.117,18.858.026,6.661-2.16,10.872-6.06,12.515-11.591,1.429-4.811,4.253-7.746,7.952-8.266a60.392,60.392,0,0,0,9.1-2.235l.231-.07c11.325-3.421,19.563-11.085,25.476-17.379C193.558,109.125,193.493,105.6,190.751,102.735ZM134.41,147.671c-5.51,1.786-11.326.794-16.952-.165-4.077-.7-8.2-1.771-12.078-2.814-8.629-2.32-17.271-1.077-25.629.126-4.145.6-8.319,1.347-12.356,2.073-3.958.711-8.051,1.448-12.078,2.03-11.779,1.7-21.905-1.87-30.944-10.932a27.252,27.252,0,0,1-2.473-4.341l-.127-.251c6.11,1.542,16.175,3.749,20.258,2.751,10.137-2.477,18.573-7.8,24.79-12.165a138.017,138.017,0,0,1,26.96-14.737,113.265,113.265,0,0,1,33-8.318,18.1,18.1,0,0,1,10.939,2.16,4.494,4.494,0,0,1,2.069,1.891c.027.064.063.117.091.179-3.309,2.088-4.589,5.159-3.895,9.356.97,5.852,2.068,12.484,4.7,18.738a12.114,12.114,0,0,0,3.8,5.031c-.05.155-.1.3-.15.463C143.08,142.938,139.744,145.941,134.41,147.671ZM188,109.2c-5.57,5.931-13.3,13.142-23.716,16.289l-.233.07a56.464,56.464,0,0,1-8.5,2.1,12.7,12.7,0,0,0-9.421,6.756,8.313,8.313,0,0,1-1.768-2.712c-2.447-5.821-3.46-11.932-4.438-17.841-.443-2.672.2-4.215,2.3-5.445.134.135.259.27.4.406l.237.229a60.79,60.79,0,0,1,6.173,6.578c2.443,3.2,5.773,4.368,9.895,3.476a44.916,44.916,0,0,0,16.131-7.188c1.733-1.206,3.451-2.432,5.17-3.658q2.03-1.449,4.068-2.888c1.746-1.226,2.451-1.032,3.562.129C189.464,107.176,188.877,108.267,188,109.2ZM35.823,125.647a2,2,0,0,0,.85-2.29,37.09,37.09,0,0,0-2.015-4.834,35,35,0,0,1-1.755-4.139c-.229-.709-.012-2.724.442-5.156.41,1.365.633,2.1.8,2.51,2.4,6.031,4.841,10.55,9.6,14.44a2,2,0,0,0,2.091.274,37.556,37.556,0,0,0,12.46-9.066C66.412,108.5,69.31,98,66.9,86.167A23.941,23.941,0,0,0,62.31,75.921,7.653,7.653,0,0,0,61.174,74.8a2.8,2.8,0,0,1-1.024-1.35,2,2,0,0,0-3.839.424c-.01.061-.941,6.091-1.416,8a11.739,11.739,0,0,1-.6,1.568,40.606,40.606,0,0,0-5.838-20.23A41.047,41.047,0,0,0,35.4,49.69c-1.523-1.016-4.3-2.607-5.772-1.844a2.088,2.088,0,0,0-1.105,1.763c-.251,9.4-1.653,19.057-10.143,25.98A29.569,29.569,0,0,0,7.6,93.119a26.064,26.064,0,0,0,.71,12.593c3.311,11.072,10.834,17.864,23,20.763A6.432,6.432,0,0,0,35.823,125.647ZM12.139,104.566a22.1,22.1,0,0,1-.616-10.678,25.669,25.669,0,0,1,9.389-15.2c8.839-7.207,10.977-17.026,11.5-26.133.29.159.562.319.777.463a37.14,37.14,0,0,1,11.82,12.218A36.688,36.688,0,0,1,50.3,83.621c.024,1.5.047,8.392.047,8.393a2,2,0,0,0,3.82.821c.189-.416.581-1.19,1.055-2.129a54.4,54.4,0,0,0,3.557-7.864c.217-.869.5-2.42.769-3.953a20.278,20.278,0,0,1,3.437,8.077c2.17,10.657-.331,19.725-7.644,27.723a33.642,33.642,0,0,1-10.014,7.579c-3.493-3.174-5.424-6.875-7.465-12.006-.108-.271-.405-1.262-.692-2.219a53.989,53.989,0,0,0-2.377-6.936,2,2,0,0,0-3.713.348c-.72,2.531-2.99,11.034-1.979,14.162a38.624,38.624,0,0,0,1.946,4.621c.375.791.738,1.558,1.063,2.318C21.526,120,14.993,114.112,12.139,104.566Z"/></svg>