<svg xmlns="http://www.w3.org/2000/svg" viewBox="0 0 200 200"><title>specialty</title><path d="M193.982,89.294a1.994,1.994,0,0,0-2.246-1.719q-5.578.74-11.157,1.471c-8.742,1.148-17.782,2.335-26.667,3.576-1.534.214-3.075.465-4.619.717-5.538.9-11.265,1.837-16.573.9-12.857-2.265-72.153,6.576-100.65,10.824-5.312.792-9.509,1.417-11.662,1.706-.393.053-.787.1-1.181.146a16.906,16.906,0,0,0-6.434,1.668,1.991,1.991,0,0,0-.406.292l-.94.871a2,2,0,0,0-.621,1.184c-.475,3.324.854,5.918,2.149,8.447a57.992,57.992,0,0,1,2.437,5.759,40.8,40.8,0,0,0,4.448,9.214c2.583,3.656,20.006,12.624,45.224,12.624a108.911,108.911,0,0,0,14.333-.955c28.432-3.775,47.472-20.975,49.343-25.678,1.5-3.769,1.905-7.817,2.3-11.733a42.189,42.189,0,0,1,1.872-10.285c5.683.807,11.437-.129,17.008-1.038,1.514-.247,3.025-.493,4.529-.7,8.868-1.239,17.9-2.425,26.634-3.572q5.582-.733,11.163-1.472A2,2,0,0,0,193.982,89.294Zm-66.9,18.917c-.381,3.809-.742,7.406-2.034,10.653-1.47,3.694-19.257,19.619-46.153,23.191-32.24,4.277-54.094-7.649-55.763-10.013a37.234,37.234,0,0,1-3.979-8.333,61.955,61.955,0,0,0-2.624-6.176c-1.014-1.979-1.837-3.586-1.794-5.376l.178-.165a14.371,14.371,0,0,1,4.784-1.1c.416-.049.833-.1,1.248-.153,2.182-.293,6.391-.921,11.72-1.715,24.291-3.621,78.939-11.773,96.19-11.13A49.961,49.961,0,0,0,127.078,108.211ZM57.476,68.9c-.514-6.4,2.36-11.291,8.787-14.962,6.04-3.451,7.754-6.4,6.793-11.684-.912-5.017-4.314-7.894-9.334-7.894a2,2,0,0,1,0-4c6.932,0,12.017,4.283,13.27,11.178,1.272,7-1.261,11.6-8.744,15.873-5.08,2.9-7.172,6.347-6.784,11.169.363,4.529,3.925,8.128,7.775,7.876a2,2,0,0,1,.27,3.991c-.227.015-.453.022-.677.022C63.021,80.47,58,75.426,57.476,68.9ZM87.035,76a13.367,13.367,0,0,1-2.748-10.377c.88-6.286,5.135-9.448,9.181-11.711,4.625-2.588,6.77-5.843,6.75-10.246-.018-4.149-2.161-6.967-6.948-9.136a2,2,0,1,1,1.65-3.644c6.231,2.823,9.272,7,9.3,12.762.026,5.929-2.852,10.428-8.8,13.754-3.871,2.166-6.572,4.487-7.173,8.775a9.411,9.411,0,0,0,1.9,7.31,9.17,9.17,0,0,0,6.568,3.318,2,2,0,0,1-.145,3.995c-.049,0-.1,0-.149-.005A13.126,13.126,0,0,1,87.035,76ZM30.629,68.147c-.443-7.79,4.811-11.8,8.8-14.146s6.443-4.391,7.091-7.887c1.028-5.548-.921-8.8-6.952-11.587a2,2,0,1,1,1.68-3.63c7.641,3.535,10.566,8.6,9.2,15.946-1.022,5.515-5.181,8.367-9,10.608-5.039,2.957-7.082,6.087-6.833,10.468a8.726,8.726,0,0,0,8.057,8.538,2,2,0,0,1-.148,3.994c-.05,0-.1,0-.152-.006A12.79,12.79,0,0,1,30.629,68.147Zm29.9,92.9a3.364,3.364,0,0,1-1.47,3.823,2,2,0,0,1-2.542-3,4.046,4.046,0,0,0-.292-.3,20.512,20.512,0,0,0-4.935-3.091c-1.072-.544-2.159-1.095-3.2-1.734a62.879,62.879,0,0,0,2.363,6.8,3.322,3.322,0,0,0,.354.7,3.928,3.928,0,0,0,1.244.137,7.318,7.318,0,0,1,2.8.462,2,2,0,1,1-1.573,3.678,4.426,4.426,0,0,0-1.314-.141,4.747,4.747,0,0,1-5.2-3.312,66.864,66.864,0,0,1-3.444-10.894c-.518-2.31.522-3.614,1.668-4.064a2,2,0,0,1,2.368.712c1.274,1.815,3.445,2.915,5.744,4.08a23.776,23.776,0,0,1,5.882,3.76A5.241,5.241,0,0,1,60.525,161.051ZM102.711,147.9a2.992,2.992,0,0,1,.139,2.8l-.117.266c-.667,1.508-1.356,3.067-1.038,4.263a6.873,6.873,0,0,0,.325.854,9.157,9.157,0,0,1,.563,1.6,9.257,9.257,0,0,1,.073,2.973c-.192,2.077-.641,6.941-4.4,8.782a2,2,0,0,1-1.757-3.594c1.546-.756,1.976-3.366,2.178-5.557a3.749,3.749,0,0,0-.33-2.633,10.035,10.035,0,0,1-.514-1.4,6.338,6.338,0,0,1-.178-.963,22.1,22.1,0,0,1-2.767,2.176,17.742,17.742,0,0,0-2.406,1.895,7.748,7.748,0,0,0-2.207,5.773,2,2,0,0,1-3.994.209,11.807,11.807,0,0,1,3.363-8.8,20.959,20.959,0,0,1,2.946-2.351,14.777,14.777,0,0,0,2.709-2.224,15.7,15.7,0,0,0,1.029-1.4,10.115,10.115,0,0,1,3.159-3.33,2.527,2.527,0,0,1,1.276-.375A2.346,2.346,0,0,1,102.711,147.9ZM83.758,162.855a3.426,3.426,0,0,1-.962,3.038,3.592,3.592,0,0,1-1.6.8l-3.4.9a2.042,2.042,0,0,1-.516.068,2,2,0,0,1-.513-3.934l2.971-.789a5.991,5.991,0,0,0-1.692-3.276,14.107,14.107,0,0,0-1.66-1.313A15.692,15.692,0,0,1,74,156.385a7.1,7.1,0,0,1-.8-1.033,12.57,12.57,0,0,1-1.413,1.182,20.1,20.1,0,0,1-1.778,1.1,16.836,16.836,0,0,0-1.443.888,2.836,2.836,0,0,0-1.291,1.657,2.278,2.278,0,0,0,.8,1.725,10.965,10.965,0,0,0,2.7,1.7,2,2,0,1,1-1.806,3.568,14.1,14.1,0,0,1-3.7-2.413,6.176,6.176,0,0,1-1.956-5.1,6.545,6.545,0,0,1,2.926-4.384,20.058,20.058,0,0,1,1.788-1.108c.518-.3,1.006-.575,1.437-.882a16.262,16.262,0,0,0,3.44-3.845c.069-.1.143-.206.223-.307a2,2,0,0,1,3.2,2.4l-.088.124a2.141,2.141,0,0,0,.684,1.987,12.444,12.444,0,0,0,1.8,1.461,17.453,17.453,0,0,1,2.13,1.708A9.9,9.9,0,0,1,83.758,162.855Z"/></svg>