<svg xmlns="http://www.w3.org/2000/svg" viewBox="0 0 200 200"><title>orderonline</title><path d="M183.9,40.616c.006-4.455.009-7.428.009-8.394,0-10.073-6.014-16.087-16.087-16.087q-9.82,0-19.641.036c-16.788.045-34.145.094-51.2-.18A15.872,15.872,0,0,0,85.586,20.67,15.1,15.1,0,0,0,81.25,31.845c.153,5.1.116,10.311.079,15.35q-.02,2.718-.026,5.437c-15.3-.011-31.737.01-48.2.1a16.9,16.9,0,0,0-12.333,4.989,17.083,17.083,0,0,0-4.746,12.408c.4,19.365.394,38.145-.015,55.817a16.662,16.662,0,0,0,4.81,12.006A16.909,16.909,0,0,0,32.959,143h.168c10.632-.1,21.449-.078,31.91-.057q6.708.013,13.416.018H81.3q.009,3.382.047,6.766c.061,5.912.124,12.025-.142,18a15.623,15.623,0,0,0,4.362,11.524,15.938,15.938,0,0,0,11.6,4.761h.239c22.584-.3,46.117-.3,69.943,0a16.6,16.6,0,0,0,12.044-4.668,16.227,16.227,0,0,0,4.6-11.986C183.769,147.121,183.867,66.959,183.9,40.616ZM88.434,23.479a11.764,11.764,0,0,1,8.479-3.486c17.1.273,34.474.226,51.279.18q9.814-.028,19.629-.036c7.908,0,12.087,4.18,12.087,12.087,0,.966,0,3.937-.009,8.389v.032a13.359,13.359,0,0,0-2.392-.276c-29.8-.024-60.014-.024-89.812,0a13.092,13.092,0,0,0-2.338.267c0-2.964-.021-5.947-.111-8.909A10.988,10.988,0,0,1,88.434,23.479ZM65.045,138.944c-10.472-.021-21.3-.042-31.955.057A12.838,12.838,0,0,1,20,126.036c.41-17.73.415-36.568.015-55.991A13.118,13.118,0,0,1,23.63,60.51a12.987,12.987,0,0,1,9.489-3.78c13.784-.074,27.554-.1,40.649-.1,16.04,0,31.065.04,43.858.084a13.054,13.054,0,0,1,9.359,3.819,13.2,13.2,0,0,1,3.667,9.529c-.1,8.589-.088,17.315-.077,25.756.01,6.857.02,13.948-.031,20.917a8.352,8.352,0,0,0,3.4,7.376,197.355,197.355,0,0,1,16.16,14.856c-.389.016-.82.012-1.307,0-.262,0-.524-.009-.786-.009H78.453Q71.749,138.962,65.045,138.944Zm82.965,4.017c.24,0,.481,0,.722.008a9.33,9.33,0,0,0,5.673-1.226l.6-.4.7-2.394-.823-.837a215.729,215.729,0,0,0-18.455-17.132,4.451,4.451,0,0,1-1.885-4.214c.051-6.986.041-14.086.031-20.952-.012-8.427-.024-17.141.077-25.7a16.8,16.8,0,0,0-17.012-17.4c-9.674-.033-20.637-.064-32.339-.077q.007-2.706.026-5.412c.006-.837.011-1.684.016-2.529.2-.034.4-.065.605-.1a10.424,10.424,0,0,1,1.75-.225c29.8-.023,60.01-.023,89.805,0a10.423,10.423,0,0,1,1.75.225c.213.039.427.072.64.108-.03,25.219-.092,82.119.024,110.55H85.393c-.01-1.867-.025-3.727-.044-5.563q-.035-3.363-.046-6.725Zm28.561,33.548a12.45,12.45,0,0,1-9.167,3.5c-23.86-.3-47.427-.295-70.046,0a11.926,11.926,0,0,1-8.916-3.544A11.6,11.6,0,0,1,85.2,167.9c.128-2.874.177-5.768.191-8.651h94.542c.017,3.276.038,6.04.062,8.147A12.319,12.319,0,0,1,176.571,176.509Zm-63.62-114.38c-3.781-1.267-6,2.184-6.731,3.318-1.93,3-4.1,7.095-3.783,12.245.1,1.614.079,3.219.054,4.919a37.939,37.939,0,0,0,.767,10c1.182,4.708,3.935,7.606,8.415,8.856v28.489a2,2,0,0,0,4,0V96.833q0-14.256-.006-28.513c0-.236.012-.485.024-.738C115.758,66.133,115.9,63.117,112.951,62.129ZM111.694,67.4c-.015.318-.029.632-.028.929q.012,14.254.006,28.509v.425c-2.444-.962-3.792-2.664-4.535-5.621a34.324,34.324,0,0,1-.646-8.969c.024-1.7.049-3.459-.062-5.226-.194-3.111.778-6.143,3.153-9.829.941-1.46,1.481-1.738,1.832-1.738a.788.788,0,0,1,.25.044A6.584,6.584,0,0,1,111.694,67.4Zm33.9,101.51a2,2,0,0,1-1.756,2.218,90.159,90.159,0,0,1-10.412.5c-1.417,0-2.824-.015-4.217-.03-2.2-.023-4.476-.05-6.7-.011h-.035a2,2,0,0,1-.034-4c2.28-.039,4.583-.013,6.811.011a112.292,112.292,0,0,0,14.124-.437A1.993,1.993,0,0,1,145.595,168.905ZM48.76,68.375a39.357,39.357,0,0,1-.012-5.161,2,2,0,1,0-3.984-.348,42.851,42.851,0,0,0,0,5.688,27.711,27.711,0,0,1-.275,7.046,8.051,8.051,0,0,0-1.838-.068c-.156.011-.315.008-.471.016.016-1.184,0-2.359-.034-3.5a30.741,30.741,0,0,1,.4-7.687,2,2,0,0,0-3.9-.877,34.239,34.239,0,0,0-.493,8.683c.035,1.183.051,2.313.032,3.433-.192,0-.374,0-.568-.005l-1.16-.017c.009-2.465,0-4.921-.01-7.329q-.01-2.6-.014-5.206a2,2,0,0,0-4,0q0,2.61.014,5.222c.016,4.052.032,8.242-.042,12.351a9.669,9.669,0,0,0,5.445,9.319c.167.092.329.162.491.234a19.812,19.812,0,0,0-.212,4.889c.027.626.056,1.251.053,1.874-.042,8.31-.036,16.756-.029,24.924l0,8.983a2,2,0,0,0,4,0l0-8.986c-.006-8.162-.013-16.6.029-24.9,0-.687-.026-1.379-.057-2.07a13.015,13.015,0,0,1,.34-4.683,10.253,10.253,0,0,0,1.906-1.165c.258-.189.514-.379.779-.542,2.87-1.769,4.13-4.814,3.55-8.577a5.9,5.9,0,0,0-.688-2A26.845,26.845,0,0,0,48.76,68.375ZM43.048,85.081c-.354.218-.7.468-1.043.72-1.3.949-1.524,1.014-2.236.623A5.7,5.7,0,0,1,36.4,80.685q.01-.554.018-1.109c.376,0,.753.011,1.13.017,1.754.028,3.568.058,5.384-.069,1.641-.116,1.716.376,1.812,1C45.187,83.4,43.988,84.5,43.048,85.081ZM93.013,78.16c-5.523-4.646-12.028-6.789-19.9-6.554-.053,0-.106,0-.158.011a2.015,2.015,0,0,0-.562.018c-9.6,1.654-16.97,7-20.762,15.047a26.5,26.5,0,0,0,.922,24.429C57.632,120,65.4,124.617,75.157,124.617a33.556,33.556,0,0,0,3.963-.241c10.736-1.277,18.484-7.69,21.816-18.057A26.483,26.483,0,0,0,93.013,78.16Zm4.115,26.935c-2.867,8.918-9.258,14.211-18.481,15.309-10.049,1.2-17.663-2.6-22.625-11.277a22.8,22.8,0,0,1-.776-20.739c3.207-6.8,9.5-11.345,17.717-12.792a1.613,1.613,0,0,0,.267.01c6.941-.207,12.406,1.577,17.209,5.616A22.448,22.448,0,0,1,97.128,105.095Z" fill="#030303"/></svg>