<svg xmlns="http://www.w3.org/2000/svg" viewBox="0 0 200 200"><title>group</title><path d="M179.618,122.942a27.837,27.837,0,0,0,2.117-4.627c1.584-4.531,2.824-10.5-1.676-16.464a2.005,2.005,0,0,0-.248-.268,28.093,28.093,0,0,0,2.47-6.25c.8-3.058,2.277-8.705-2.239-13.139.258-1.019.515-2.038.762-3.06.426-1.756.866-3.571,1.351-5.331,2.584-9.372-.463-17.695-9.315-25.444-12.437-10.886-26.946-15.052-39.5-17.692-20.028-4.212-38.71-4.8-57.108-1.787-13.355,2.183-27.438,5.268-39.956,12.987-5.392,3.325-10.963,7.091-14.643,13.307-2.983,5.039-3.691,10-2.293,16.1A37.494,37.494,0,0,0,24.065,82.9c-.426.266-.87.527-1.343.794-2.062,1.163-4.4,2.48-5.723,5.392l-.312.684.216.72c.373,1.243.646,2.6.937,4.039.57,2.828,1.171,5.726,2.6,8.1-.012.018-.027.033-.038.052-4.188,7.127-3.867,13.535,1.252,20.6a1.973,1.973,0,0,0-.886.467c-4.376,4.051-5.145,9.94-2.11,16.157a37.492,37.492,0,0,0,13.721,15.6C48.9,165.93,67.732,171.409,91.642,172.743q4.553.253,9.05.254a148.521,148.521,0,0,0,42.263-6c11.9-3.525,25.382-8.771,35.135-20.951,5.815-7.264,6.554-15.263,2.076-22.524A2,2,0,0,0,179.618,122.942ZM25.074,57.212c3.217-5.433,8.335-8.878,13.3-11.941,11.926-7.354,25.552-10.327,38.5-12.444a139.843,139.843,0,0,1,22.644-1.834,159.768,159.768,0,0,1,33,3.587c12.047,2.533,25.945,6.509,37.688,16.788,7.688,6.729,10.259,13.52,8.095,21.371-.5,1.82-.949,3.666-1.383,5.451-.232.958-.464,1.915-.705,2.87-.058.033-.115.069-.171.109-1.595,1.129-3.173,2.286-4.752,3.442-3.353,2.457-6.82,5-10.369,7.2-14.37,8.915-30.657,11.542-44.694,12.938-23.881,2.374-46.354-.331-66.789-8.042-15.261-5.758-23.341-13.879-26.2-26.33C22.057,65.225,22.589,61.411,25.074,57.212Zm-.387,29.961c.559-.315,1.127-.653,1.691-1.014,5.989,7.481,14.288,11.512,21.646,14.288a145.52,145.52,0,0,0,51.664,9.133q8.341,0,16.934-.854c14.493-1.44,31.341-4.174,46.407-13.519,3.679-2.283,7.21-4.869,10.624-7.37q1.844-1.352,3.7-2.686c2.289,2.326,2.144,5.043,1.06,9.162-2.663,10.123-10.916,15.55-18.637,19.523-19.233,9.9-41.621,13.828-70.449,12.4-19.093-.951-35.147-5.025-49.079-12.455A57.444,57.444,0,0,1,24.529,101.5c-1.559-1.77-2.173-4.817-2.768-7.764-.239-1.191-.486-2.414-.8-3.594A9.541,9.541,0,0,1,24.688,87.174Zm-1.5,18.755a61.334,61.334,0,0,0,15.18,11.385c14.464,7.713,31.068,11.939,50.763,12.92q5.84.292,11.346.292c24.226,0,43.867-4.246,61.133-13.131,5.69-2.927,11.64-6.612,15.879-12.209,2.087,3.292,2.225,6.8.476,11.809-3.3,9.45-11.076,13.747-19.306,18.3q-1.34.741-2.68,1.491c-5.69,3.207-11.862,4.711-18.4,6.3a116.287,116.287,0,0,0-12.391,3.512c-2.354.859-5.337.762-8.22.67-.592-.02-1.18-.038-1.759-.05-4-.077-8.055.028-11.977.13-7.654.2-15.568.405-23.188-.779-18.76-2.913-36.771-6.693-50.916-20.771C21.462,118.166,19.76,112.646,23.184,105.929Zm151.782,37.62c-9.062,11.316-21.842,16.267-33.148,19.615a146.7,146.7,0,0,1-49.953,5.585c-23.2-1.294-41.425-6.58-57.349-16.634a33.113,33.113,0,0,1-12.261-13.972c-1.583-3.245-2.655-7.868,1.232-11.468a1.989,1.989,0,0,0,.434-.592c.737.839,1.518,1.685,2.385,2.548,14.986,14.912,34.461,18.989,53.125,21.888a97.1,97.1,0,0,0,14.913.979c3.021,0,6.026-.078,8.993-.155,3.876-.1,7.886-.205,11.794-.128.563.011,1.133.029,1.707.048,3.266.1,6.641.214,9.721-.91a113.4,113.4,0,0,1,11.966-3.384c6.511-1.586,13.242-3.226,19.414-6.7q1.321-.746,2.65-1.475c6.032-3.335,12.2-6.761,16.646-12.332C180.257,132.014,179.487,137.9,174.966,143.549ZM52.444,76.093c1.076-5.57,3.417-13.405,11.293-17.131,7.125-3.371,15.192-7.187,23.983-7.187h.249c2.857.021,5.8-.042,8.646-.105,12.7-.287,25.839-.579,37.918,6.663.674.4,1.366.794,2.061,1.187,4.886,2.759,10.424,5.885,10.322,13.814a2.041,2.041,0,0,1-2.025,1.974,2,2,0,0,1-1.975-2.026c.071-5.559-3.8-7.746-8.289-10.279-.725-.409-1.447-.817-2.15-1.239-11.088-6.646-23.082-6.38-35.772-6.094-2.874.064-5.848.129-8.769.106h-.222c-7.888,0-15.2,3.458-22.267,6.8-4.745,2.244-7.629,6.78-9.076,14.274a2,2,0,0,1-1.962,1.621,2.028,2.028,0,0,1-.381-.037A2,2,0,0,1,52.444,76.093Z" fill="#030303"/></svg>